<?xml version="1.0" encoding="UTF-8" standalone="no"?>
<svg
   xmlns:dc="http://purl.org/dc/elements/1.1/"
   xmlns:cc="http://creativecommons.org/ns#"
   xmlns:rdf="http://www.w3.org/1999/02/22-rdf-syntax-ns#"
   xmlns:svg="http://www.w3.org/2000/svg"
   xmlns="http://www.w3.org/2000/svg"
   xmlns:sodipodi="http://sodipodi.sourceforge.net/DTD/sodipodi-0.dtd"
   xmlns:inkscape="http://www.inkscape.org/namespaces/inkscape"
   width="76.429939mm"
   height="114.52016mm"
   viewBox="0 0 76.429939 114.52016"
   version="1.1"
   id="svg8"
   inkscape:version="1.0.1 (3bc2e81, 2020-09-07)"
   sodipodi:docname="home.svg">
  <defs
     id="defs2">
    <filter
       style="color-interpolation-filters:sRGB"
       inkscape:label="Greyscale"
       id="filter4147">
      <feColorMatrix
         values="0.21 0.72 0.072 0 0 0.21 0.72 0.072 0 0 0.21 0.72 0.072 0 0 0 0 0 1 0 "
         id="feColorMatrix4149" />
    </filter>
  </defs>
  <sodipodi:namedview
     id="base"
     pagecolor="#ffffff"
     bordercolor="#666666"
     borderopacity="1.0"
     inkscape:pageopacity="0.0"
     inkscape:pageshadow="2"
     inkscape:zoom="0.35"
     inkscape:cx="264.77611"
     inkscape:cy="113.82923"
     inkscape:document-units="mm"
     inkscape:current-layer="layer1"
     inkscape:document-rotation="0"
     showgrid="false"
     fit-margin-top="0"
     fit-margin-left="0"
     fit-margin-right="0"
     fit-margin-bottom="0"
     inkscape:window-width="1548"
     inkscape:window-height="872"
     inkscape:window-x="52"
     inkscape:window-y="0"
     inkscape:window-maximized="1" />
  <metadata
     id="metadata5">
    <rdf:RDF>
      <cc:Work
         rdf:about="">
        <dc:format>image/svg+xml</dc:format>
        <dc:type
           rdf:resource="http://purl.org/dc/dcmitype/StillImage" />
        <dc:title></dc:title>
      </cc:Work>
    </rdf:RDF>
  </metadata>
  <g
     inkscape:label="Layer 1"
     inkscape:groupmode="layer"
     id="layer1"
     transform="translate(-35.777987,2.9030317)">
    <path
       sodipodi:nodetypes="ccscscc"
       inkscape:connector-curvature="0"
       id="path4215"
       d="m 349.44515,87.581541 c -56.8793,-0.0016 -102.98891,46.108229 -102.98751,102.987239 -1e-5,34.34074 22.32401,60.35206 45.69052,85.51729 33.62537,36.21327 48.08201,68.21833 57.66325,150.64615 9.64518,-83.09725 24.75582,-115.21781 58.27415,-151.65063 22.83971,-24.82593 44.29776,-50.77902 44.34641,-84.51281 0.002,-56.87873 -46.10822,-102.988562 -102.98682,-102.987239 z"
       style="fill:#f0f0f0;fill-opacity:1;stroke:none;stroke-width:5;stroke-linecap:butt;stroke-linejoin:miter;stroke-miterlimit:4;stroke-dasharray:none;stroke-dashoffset:0;stroke-opacity:1;filter:url(#filter4147)"
       transform="matrix(0.26458333,0,0,0.26458333,-18.464312,-11.935037)" />
    <path
       id="path4229"
       d="m 349.44515,70.206607 c -66.2701,-0.0016 -120.36384,54.092973 -120.36246,120.362173 7e-4,41.87097 26.65941,71.84419 50.33311,97.34038 31.84132,34.29223 55.06396,105.11936 70.42272,142.99033 14.16613,-36.07844 39.19855,-109.44606 71.03361,-144.04909 23.25323,-25.27574 48.8757,-55.16535 48.93478,-96.25444 v -0.0139 0 c 0.002,-66.269 -54.09374,-120.363714 -120.36176,-120.362113 v -0.01389 z m 0,34.749873 c 47.48224,-8.1e-4 85.60632,38.117 85.61189,85.59875 -0.0695,26.37252 -17.33672,48.38566 -39.75873,72.75755 -20.70954,22.5091 -34.8722,46.31617 -45.43269,78.33652 -10.35546,-31.52579 -24.28182,-55.09031 -44.98511,-77.38632 -23.05862,-24.8342 -41.04794,-46.88328 -41.04794,-73.6942 -0.002,-47.48862 38.1234,-85.61355 85.61258,-85.6123 z m 0.82774,25.57376 -63.48664,47.49599 h 17.78221 v 61.38246 h 29.70072 V 200.125 h 31.99422 l -10e-6,39.28369 h 29.71393 v -61.38246 h 17.78221 z"
       style="color:#000000;font-style:normal;font-variant:normal;font-weight:normal;font-stretch:normal;font-size:medium;line-height:normal;font-family:sans-serif;text-indent:0;text-align:start;text-decoration:none;text-decoration-line:none;text-decoration-style:solid;text-decoration-color:#000000;letter-spacing:normal;word-spacing:normal;text-transform:none;writing-mode:lr-tb;direction:ltr;baseline-shift:baseline;text-anchor:start;white-space:normal;clip-rule:nonzero;display:inline;overflow:visible;visibility:visible;isolation:auto;mix-blend-mode:normal;color-interpolation:sRGB;color-interpolation-filters:linearRGB;solid-color:#000000;solid-opacity:1;fill:#2e2e2e;fill-opacity:1;fill-rule:nonzero;stroke:none;stroke-width:5;stroke-linecap:butt;stroke-linejoin:miter;stroke-miterlimit:4;stroke-dasharray:none;stroke-dashoffset:0;stroke-opacity:1;filter:url(#filter4147);color-rendering:auto;image-rendering:auto;shape-rendering:auto;text-rendering:auto;enable-background:accumulate"
       inkscape:connector-curvature="0"
       transform="matrix(0.26458333,0,0,0.26458333,-18.464312,-11.935037)" />
  </g>
</svg>
